<svg version="1.0" xmlns="http://www.w3.org/2000/svg"
 width="118.000000pt" height="190.000000pt" viewBox="0 0 118.000000 190.000000"
 preserveAspectRatio="xMidYMid meet">

<g transform="translate(0.000000,190.000000) scale(0.100000,-0.100000)"
fill="#000000" stroke="none">
<path d="M470 1791 c0 -10 10 -31 22 -46 21 -27 21 -29 4 -39 -51 -30 -66 -48
-57 -64 6 -11 6 -24 0 -35 -6 -10 -6 -23 0 -34 5 -10 12 -44 16 -76 5 -36 13
-61 23 -66 12 -7 13 -13 6 -23 -6 -7 -26 -49 -43 -92 -31 -75 -34 -97 -16
-138 7 -17 -4 -18 -154 -18 l-161 0 0 -550 0 -550 480 0 480 0 0 550 0 550
-106 0 c-104 0 -105 0 -91 20 13 19 10 30 -24 113 -21 51 -38 97 -38 102 0 6
17 22 39 37 34 24 43 26 75 17 60 -17 65 -10 65 81 l0 80 -82 0 -83 1 -43 40
c-42 40 -43 42 -31 73 7 17 18 38 26 47 30 36 18 39 -147 39 -149 0 -160 -1
-160 -19z m284 -39 c-32 -60 -80 -106 -102 -96 -10 4 -37 10 -62 13 -55 8 -70
17 -70 40 0 10 -9 30 -20 44 -11 14 -20 30 -20 36 0 7 50 11 149 10 l149 0
-24 -47z m-42 -209 c36 -41 158 -305 158 -342 0 -5 -19 -31 -42 -60 l-42 -51
-137 0 -137 0 -35 39 c-69 77 -70 89 -13 215 35 77 35 77 68 71 60 -11 127
-10 139 2 9 9 9 28 2 73 -5 33 -7 62 -5 65 10 10 29 5 44 -12z m-344 -530 c96
-30 478 -21 567 13 14 6 16 -2 13 -62 l-3 -68 -55 -17 c-30 -10 -83 -20 -117
-24 l-62 -7 6 -234 6 -234 -80 0 -81 0 -102 115 c-55 63 -103 115 -106 115 -2
0 -4 -81 -4 -180 l0 -180 180 0 181 0 -3 -62 -3 -62 -255 3 c-140 1 -255 4
-255 4 0 1 1 143 3 315 l3 312 87 0 87 -1 75 -95 c41 -52 83 -105 92 -117 17
-21 18 -15 18 144 l0 166 -87 6 c-49 3 -106 12 -128 19 l-40 13 -3 68 c-2 37
0 67 4 67 3 0 31 -8 62 -17z m616 -184 c13 -7 30 -25 37 -41 10 -25 9 -33 -8
-56 -40 -54 -153 -33 -153 29 0 61 63 95 124 68z m-87 -149 c5 -17 14 -20 65
-20 51 0 59 -2 56 -17 -3 -15 -14 -18 -58 -18 -46 0 -56 -3 -60 -20 -3 -11
-14 -21 -23 -23 -15 -3 -17 5 -17 57 0 49 3 61 16 61 9 0 18 -9 21 -20z m123
-89 c0 -11 -9 -23 -20 -26 -12 -4 -20 -15 -20 -30 0 -14 7 -25 20 -28 15 -4
20 -14 20 -39 0 -30 -6 -38 -42 -59 l-43 -24 43 -3 c28 -2 42 -8 42 -18 0 -11
-17 -14 -80 -14 -95 0 -104 14 -35 54 25 15 45 29 45 32 0 3 -19 4 -42 2 -34
-2 -43 1 -46 15 -3 15 6 17 70 17 l73 1 -69 24 c-38 14 -71 25 -73 25 -2 0 -3
6 -3 14 0 11 111 64 158 75 1 1 2 -8 2 -18z m-19 -269 c31 -26 31 -78 0 -104
-50 -40 -141 -7 -141 52 0 59 91 92 141 52z m19 -172 l0 -50 -80 0 c-64 0 -80
3 -80 15 0 12 14 15 65 15 l65 0 0 35 c0 24 5 35 15 35 11 0 15 -12 15 -50z"/>
<path d="M327 955 c-4 -8 -1 -17 5 -21 7 -5 8 -2 3 6 -6 9 0 10 26 4 19 -5 55
-9 82 -9 35 0 46 -3 42 -13 -3 -7 0 -10 5 -7 19 12 10 26 -25 41 -46 19 -131
19 -138 -1z"/>
<path d="M784 950 c-31 -12 -36 -26 -16 -41 15 -12 16 -12 5 2 -18 22 -7 29
51 30 28 0 60 4 71 9 27 12 -82 12 -111 0z"/>
<path d="M540 925 c-10 -13 -11 -18 -1 -28 10 -9 11 -8 6 4 -5 14 3 16 60 16
38 0 70 4 77 11 9 9 -4 12 -59 12 -51 0 -74 -4 -83 -15z"/>
<path d="M640 771 c6 -76 15 -98 26 -57 8 35 -2 96 -18 113 -11 10 -12 0 -8
-56z"/>
<path d="M601 784 c0 -11 3 -14 6 -6 3 7 2 16 -1 19 -3 4 -6 -2 -5 -13z"/>
<path d="M265 728 c-9 -35 -2 -113 10 -111 13 4 19 113 6 126 -7 7 -12 2 -16
-15z"/>
<path d="M350 712 c0 -15 51 -82 71 -93 14 -7 18 -16 14 -27 -5 -13 -3 -14 5
-6 17 17 4 50 -37 95 -33 37 -53 48 -53 31z"/>
<path d="M610 696 c0 -2 8 -10 18 -17 15 -13 16 -12 3 4 -13 16 -21 21 -21 13z"/>
<path d="M222 660 c0 -14 2 -19 5 -12 2 6 2 18 0 25 -3 6 -5 1 -5 -13z"/>
<path d="M340 664 c1 -11 40 -57 60 -69 14 -9 14 -8 0 5 -8 8 -25 28 -38 44
-12 16 -22 25 -22 20z"/>
<path d="M641 553 c2 -58 6 -80 14 -72 15 15 13 125 -3 141 -11 11 -13 -1 -11
-69z"/>
<path d="M601 584 c0 -11 3 -14 6 -6 3 7 2 16 -1 19 -3 4 -6 -2 -5 -13z"/>
<path d="M242 538 c-7 -7 -12 -17 -12 -22 0 -6 5 -3 11 7 18 30 27 19 22 -27
-6 -52 3 -100 17 -91 13 8 13 101 0 126 -12 22 -21 24 -38 7z"/>
<path d="M500 541 c0 -14 63 -94 78 -99 23 -7 12 25 -24 66 -34 40 -54 52 -54
33z"/>
<path d="M601 524 c0 -11 3 -14 6 -6 3 7 2 16 -1 19 -3 4 -6 -2 -5 -13z"/>
<path d="M610 491 c0 -6 4 -13 10 -16 6 -3 7 1 4 9 -7 18 -14 21 -14 7z"/>
<path d="M221 464 c0 -11 3 -14 6 -6 3 7 2 16 -1 19 -3 4 -6 -2 -5 -13z"/>
<path d="M510 456 c0 -2 8 -10 18 -17 15 -13 16 -12 3 4 -13 16 -21 21 -21 13z"/>
<path d="M230 413 c0 -6 8 -17 18 -24 16 -13 16 -13 2 6 -8 11 -16 22 -17 24
-2 2 -3 0 -3 -6z"/>
<path d="M235 349 c-4 -6 -5 -12 -2 -15 2 -3 7 2 10 11 7 17 1 20 -8 4z"/>
<path d="M261 311 c-3 -63 7 -101 20 -80 13 21 11 93 -4 113 -12 16 -14 12
-16 -33z"/>
<path d="M221 304 c0 -11 3 -14 6 -6 3 7 2 16 -1 19 -3 4 -6 -2 -5 -13z"/>
<path d="M221 244 c0 -11 3 -14 6 -6 3 7 2 16 -1 19 -3 4 -6 -2 -5 -13z"/>
<path d="M314 206 c-16 -12 -17 -17 -6 -28 11 -11 12 -10 6 6 -6 16 -2 18 32
16 65 -4 104 -1 104 10 0 16 -113 12 -136 -4z"/>
<path d="M524 206 c-16 -12 -17 -17 -6 -28 11 -11 12 -10 6 6 -7 17 -4 19 33
13 45 -8 103 1 103 14 0 15 -114 10 -136 -5z"/>
<path d="M901 786 c-19 -23 3 -56 37 -56 38 0 54 13 50 41 -2 20 -10 25 -39
27 -22 2 -40 -2 -48 -12z"/>
<path d="M930 540 c-13 -8 -12 -10 3 -10 9 0 17 5 17 10 0 12 -1 12 -20 0z"/>
<path d="M906 294 c-9 -8 -16 -19 -16 -24 0 -14 30 -40 46 -40 27 0 54 20 54
40 0 36 -57 52 -84 24z"/>
</g>
</svg>
